#!OML:ASF F:\VICON\USERDATA\INSTALL\rory3\rory3.ASF
:FULLY-SPECIFIED
:DEGREES
61
root -2.70345 16.5055 42.7685 -165.124 -6.37631 -174.994
lowerback -11.4319 1.29515 4.62561
upperback -5.77302 0.52427 1.83426
thorax 0.418735 -0.107116 -0.63827
lowerneck -15.2442 -1.88968 -7.70928
upperneck 35.6584 -5.56058 4.53643
head 15.3872 -3.94133 1.99066
rclavicle -2.46555e-014 6.36111e-015
rhumerus -37.5226 10.1844 -95.7549
rradius 29.8973
rwrist 13.8139
rhand -23.5004 -44.9952
rfingers 7.12502
rthumb 2.95985 -74.9544
lclavicle -2.46555e-014 6.36111e-015
lhumerus -37.5503 -10.7799 94.0597
lradius 32.6587
lwrist 7.32756
lhand -31.3059 -29.3653
lfingers 7.12502
lthumb -4.57854 0.565237
rfemur -32.5241 7.79353 26.0473
rtibia 41.9848
rfoot -20.9734 -17.5638
rtoes -1.13027
lfemur -32.6788 -9.13255 -15.054
ltibia 44.1909
lfoot -26.4584 18.457
ltoes 7.52341
62
root -2.72101 16.4991 42.7555 -165.101 -5.4987 -174.771
lowerback -12.0852 1.77106 4.65026
upperback -5.43691 1.11388 1.85407
thorax 1.14908 0.211839 -0.550847
lowerneck -15.0235 -2.09203 -7.59732
upperneck 35.2222 -5.78194 4.47648
head 15.1393 -3.99293 1.9158
rclavicle 8.07563e-016 -2.36554e-014
rhumerus -37.1763 9.77888 -95.3187
rradius 29.5854
rwrist 14.5302
rhand -24.2827 -44.1543
rfingers 7.12502
rthumb 2.20436 -74.1226
lclavicle 8.07563e-016 -2.36554e-014
lhumerus -37.0952 -10.8247 94.0779
lradius 32.5496
lwrist 7.2938
lhand -31.4848 -29.7231
lfingers 7.12502
lthumb -4.75126 0.203596
rfemur -32.5878 7.98917 26.084
rtibia 42.0591
rfoot -21.0401 -16.8556
rtoes -1.32267
lfemur -32.5154 -8.84245 -15.0687
ltibia 44.2623
lfoot -26.7211 18.939
ltoes 7.552
63
root -2.71475 16.4979 42.7612 -164.799 -6.48989 -174.965
lowerback -12.2695 1.44462 4.45587
upperback -5.54438 0.685743 1.82702
thorax 1.11633 -0.0049776 -0.52446
lowerneck -14.9593 -2.12097 -7.55844
upperneck 35.0816 -5.81565 4.50173
head 15.0598 -3.9889 1.91649
rclavicle 1.26166e-014 1.33186e-014
rhumerus -36.9386 9.28476 -95.0524
rradius 30.5793
rwrist 11.255
rhand -20.9861 -47.1874
rfingers 7.12502
rthumb 5.38775 -77.0989
lclavicle 1.26166e-014 1.33186e-014
lhumerus -37.0347 -10.4219 93.758
lradius 32.5171
lwrist 7.17577
lhand -31.4169 -30.1065
lfingers 7.12502
lthumb -4.6857 -0.178311
rfemur -32.9209 8.0786 25.9408
rtibia 42.1605
rfoot -21.3083 -17.5347
rtoes -0.4852
lfemur -33.1264 -8.87835 -15.0442
ltibia 44.343
lfoot -26.4838 18.1394
ltoes 7.11522
64
root -2.72599 16.4943 42.7553 -164.775 -6.35816 -174.965
lowerback -12.3836 1.46834 4.52525
upperback -5.41892 0.710189 1.82139
thorax 1.31074 0.0166415 -0.56465
lowerneck -15.0993 -2.14226 -7.69646
upperneck 34.9726 -5.76869 4.58457
head 15.0452 -3.95686 1.9845
rclavicle 7.42336e-016 -2.62396e-014
rhumerus -36.7328 9.21777 -94.8668
rradius 30.8233
rwrist 10.5614
rhand -20.6683 -47.7714
rfingers 7.12502
rthumb 5.69463 -77.6748
lclavicle 7.42336e-016 -2.62396e-014
lhumerus -36.835 -9.91489 93.4626
lradius 32.5056
lwrist 7.14468
lhand -31.7258 -30.367
lfingers 7.12502
lthumb -4.98397 -0.445575
rfemur -32.948 8.1123 25.8726
rtibia 42.1781
rfoot -21.3459 -17.4456
rtoes -0.478164
lfemur -33.1682 -8.88385 -15.1095
ltibia 44.4601
lfoot -26.5675 18.2584
ltoes 7.35086
65
root -2.74306 16.4889 42.7469 -164.825 -5.90097 -174.777
lowerback -12.5473 1.68986 4.80209
upperback -5.22651 0.969053 1.80938
thorax 1.61529 0.156434 -0.694206
lowerneck -15.1288 -2.22097 -7.8256
upperneck 34.7959 -5.82119 4.68491
head 14.9821 -3.96278 2.04257
rclavicle 2.91965e-016 -1.64991e-014
rhumerus -36.524 8.98769 -94.6146
rradius 30.8803
rwrist 10.5961
rhand -20.7878 -47.7211
rfingers 7.12502
rthumb 5.57921 -77.6277
lclavicle 2.91965e-016 -1.64991e-014
lhumerus -36.6485 -9.70812 93.2751
lradius 32.6096
lwrist 7.33124
lhand -32.0053 -30.049
lfingers 7.12502
lthumb -5.25389 -0.13411
rfemur -32.8899 8.23771 25.954
rtibia 42.166
rfoot -21.4233 -17.2185
rtoes -0.360456
lfemur -33.0607 -8.76062 -15.0754
ltibia 44.578
lfoot -26.7364 18.5317
ltoes 8.02223
66
root -2.76043 16.4837 42.7246 -165.109 -5.5606 -174.539
lowerback -12.5976 1.86866 5.18445
upperback -4.98236 1.17295 1.80045
thorax 1.91397 0.273987 -0.886357
lowerneck -15.1738 -2.30278 -7.90656
upperneck 34.6466 -5.88602 4.74903
head 14.934 -3.97443 2.07399
rclavicle -6.51408e-015 -1.94809e-014
rhumerus -36.4387 8.82743 -94.4723
rradius 30.1239
rwrist 12.5822
rhand -23.0442 -45.8267
rfingers 7.12502
rthumb 3.40038 -75.7794
lclavicle -6.51408e-015 -1.94809e-014
lhumerus -36.464 -9.44539 93.0296
lradius 32.5982
lwrist 7.52579
lhand -31.867 -30.0591
lfingers 7.12502
lthumb -5.12027 -0.141
rfemur -32.4633 8.47402 26.1356
rtibia 42.1244
rfoot -21.5693 -17.2493
rtoes -0.570199
lfemur -32.6389 -8.59797 -15.0191
ltibia 44.6938
lfoot -27.0201 18.7388
ltoes 8.3664
67
root -2.77861 16.4783 42.698 -165.41 -5.33634 -174.438
lowerback -11.7452 1.98065 5.50415
upperback -5.36271 1.3392 1.72604
thorax 1.07185 0.316443 -1.1372
lowerneck -14.8578 -2.25699 -8.01127
upperneck 34.9189 -5.97243 4.81711
head 15.0027 -4.06535 2.10345
rclavicle 4.7522e-015 -1.03368e-014
rhumerus -36.9971 8.04132 -94.1229
rradius 30.9946
rwrist 9.70148
rhand -19.3035 -49.3375
rfingers 7.12502
rthumb 7.01222 -79.2013
lclavicle 4.7522e-015 -1.03368e-014
lhumerus -37.2189 -8.86122 92.7237
lradius 32.4932
lwrist 7.47828
lhand -31.8828 -30.9883
lfingers 7.12502
lthumb -5.13556 -1.07058
rfemur -31.9881 8.54796 26.2161
rtibia 42.0972
rfoot -21.6638 -17.4258
rtoes -1.63001
lfemur -32.1802 -8.52484 -15.0893
ltibia 44.787
lfoot -27.2839 18.8832
ltoes 8.61492
